HIERARCHY
ROOT Hips
{
  OFFSET 0 0 0
  CHANNELS 6 Xposition Yposition Zposition Zrotation Yrotation Xrotation
  JOINT LeftThigh
  {
    OFFSET 8.409438 0 -5.917753
    CHANNELS 3 Zrotation Yrotation Xrotation
    JOINT LeftLeg
    {
      OFFSET 0 0 -42.358652
      CHANNELS 3 Zrotation Yrotation Xrotation
      JOINT LeftFoot
      {
        OFFSET 0 0 -39.357303
        CHANNELS 3 Zrotation Yrotation Xrotation
      }
    }
  }
  JOINT RightThigh
  {
    OFFSET -8.409438 0 -5.917753
    CHANNELS 3 Zrotation Yrotation Xrotation
    JOINT RightLeg
    {
      OFFSET 0 0 -42.358652
      CHANNELS 3 Zrotation Yrotation Xrotation
      JOINT RightFoot
      {
        OFFSET 0 0 -39.357303
        CHANNELS 3 Zrotation Yrotation Xrotation
      }
    }
  }
  JOINT SpineLow
  {
    OFFSET 0 0 4.719101
    CHANNELS 3 Zrotation Yrotation Xrotation
    JOINT SpineMid
    {
      OFFSET 0 0 12.899191
      CHANNELS 3 Zrotation Yrotation Xrotation
      JOINT Chest
      {
        OFFSET 0 0 12.899191
        CHANNELS 3 Zrotation Yrotation Xrotation
        JOINT LeftShoulder
        {
          OFFSET 7.550562 1.41573 9.438202
          CHANNELS 3 Zrotation Yrotation Xrotation
          JOINT LeftArm
          {
            OFFSET 9.155056 0 4.247191
            CHANNELS 3 Zrotation Yrotation Xrotation
            JOINT LeftForearm
            {
              OFFSET 0 0 25.771955
              CHANNELS 3 Zrotation Yrotation Xrotation
              JOINT LeftHand
              {
                OFFSET 0 0 25.197169
                CHANNELS 3 Zrotation Yrotation Xrotation
              }
            }
          }
        }
        JOINT RightShoulder
        {
          OFFSET -7.550562 1.41573 9.438202
          CHANNELS 3 Zrotation Yrotation Xrotation
          JOINT RightArm
          {
            OFFSET -9.155056 0 4.247191
            CHANNELS 3 Zrotation Yrotation Xrotation
            JOINT RightForearm
            {
              OFFSET 0 0 -25.771955
              CHANNELS 3 Zrotation Yrotation Xrotation
              JOINT RightHand
              {
                OFFSET 0 0 -25.197169
                CHANNELS 3 Zrotation Yrotation Xrotation
              }
            }
          }
        }
        JOINT Neck
        {
          OFFSET 0 0 15.101124
          CHANNELS 3 Zrotation Yrotation Xrotation
          JOINT Head
          {
            OFFSET 0 0 11.325843
            CHANNELS 3 Zrotation Yrotation Xrotation
            End Site
            {
              OFFSET 0 0 14.157303
            }
          }
        }
      }
    }
  }
}
MOTION
Frames: 14
Frame Time: 0.0
0.0  93.25843  0.0  14.773784  1.015576  -117.792766  42.621809  -5.423725  -111.77376  11.018169  36.539978  101.834914  -0.339526  -4.279307  1.484474  -5.129949  9.68373  17.635384  0.89582  9.527244  11.796153  8.501112  3.000773  3.724899  -0.684775  0.690259  2.458869  -1.799878  1.953929  6.702696  -1.799878  1.953929  6.702696  -9.4862  28.746485  6.810034  -176.870782  38.15317  -149.493064  -9.903633  -24.756813  74.648478  -14.752817  -22.185258  120.510543  -0.07922  0.31879  24.274061  108.395891  44.236785  32.925075  -24.228321  29.65955  -44.753764  5.728217  -33.279365  101.64335  7.573371  9.030449  11.222407  5.503353  6.915504  8.2881  
0.0  93.25843  0.0  14.183111  0.889961  -117.605599  42.727504  -5.985055  -109.857687  12.117266  37.1594  103.239926  -0.134303  -4.077723  1.527105  -4.692898  8.722832  17.597  0.709379  9.422714  11.677278  8.414394  3.036195  3.785222  -0.886867  0.564481  2.595259  -2.36086  1.635777  7.073404  -2.36086  1.635777  7.073404  -7.331479  29.100003  7.523337  -175.208664  34.262426  -150.097692  -7.520528  -22.584347  71.702794  -5.994849  -21.432658  123.076117  0.866071  1.147691  24.44967  106.367473  42.905092  33.495915  -21.189319  28.325547  -43.723872  2.146791  -29.118157  97.02736  8.084542  9.185076  10.394508  5.89496  7.029743  7.658278  
0.0  93.25843  0.0  13.477037  0.854675  -117.309713  42.203052  -6.738294  -107.42395  12.995176  37.245165  104.439787  0.045869  -3.90003  1.4501  -4.30052  7.645939  17.425539  0.466668  9.32127  11.569388  8.182923  3.08426  3.806726  -0.922186  0.488997  2.717816  -2.46249  1.438008  7.410057  -2.46249  1.438008  7.410056  -6.140889  29.718482  8.839179  -174.633486  31.771446  -150.806683  -6.807007  -20.153461  68.841814  3.343259  -21.382244  125.154216  0.840347  1.317994  24.585308  106.002326  41.004884  35.388437  -20.271684  27.196884  -43.260352  -0.477358  -25.935933  92.005758  7.862465  8.817177  9.488941  5.748939  6.737851  6.98975  
0.0  93.25843  0.0  12.761823  0.848022  -117.003944  41.836827  -7.558244  -104.759906  13.648434  37.192879  105.711496  -0.017209  -3.520641  1.22342  -3.958551  6.616247  17.184736  0.19796  9.174581  11.427618  8.034579  3.073891  3.869418  -0.809554  0.43295  2.825565  -2.159071  1.275912  7.708786  -2.159071  1.275912  7.708786  -6.283477  30.206041  10.420412  -174.688042  29.721291  -151.487603  -7.78775  -17.970996  66.204628  13.025103  -21.67715  126.250054  0.535153  1.247134  24.934496  106.249863  39.44806  37.500893  -20.729358  25.104238  -42.880003  -2.053939  -22.314333  86.847199  7.08105  8.177698  8.618163  5.186944  6.235341  6.358305  
0.0  93.25843  0.0  11.951384  1.10151  -116.477689  41.05812  -8.340344  -101.869652  14.10072  36.796908  106.827861  -0.044358  -3.126553  0.978814  -3.943464  5.679124  16.682708  0.033292  8.988533  11.293894  7.94207  3.029184  3.936001  -0.689902  0.351438  2.858352  -1.841392  1.040448  7.802852  -1.841392  1.040448  7.802852  -6.298071  30.910601  11.934453  -176.183417  28.236811  -152.838767  -9.967593  -16.49959  63.918484  22.036138  -22.488249  126.228387  0.406126  1.217186  25.706632  106.661302  38.058785  39.439135  -22.085964  22.443083  -42.408242  -2.931457  -17.787352  81.858199  6.160316  7.578121  7.91157  4.515764  5.765008  5.848928  
0.0  93.25843  0.0  11.001541  1.683762  -115.820563  39.629577  -9.054573  -98.572572  14.143282  36.072114  107.460335  -0.082162  -2.742102  0.783862  -4.335091  4.851164  15.991556  -0.219408  8.705921  11.082303  7.796085  2.962092  3.990741  -0.515035  0.273271  3.007616  -1.37141  0.809572  8.215143  -1.37141  0.809572  8.215143  -6.565531  30.649305  12.816971  179.997361  26.495261  -154.499813  -13.052252  -16.407218  62.099186  29.322155  -24.293195  125.615549  -0.316138  1.055716  25.669227  107.033269  36.599024  40.923185  -24.128715  19.531649  -41.893738  -2.873649  -12.899539  77.030615  4.81932  6.983149  6.720849  3.533375  5.291412  4.979441  
0.0  93.25843  0.0  9.935829  2.414043  -115.009973  37.967151  -9.767659  -95.041939  13.995013  35.291157  107.740907  -0.100634  -2.39435  0.597161  -4.866854  3.92018  15.201981  -0.080024  8.457646  11.031216  7.418433  2.851642  3.928026  -0.341948  0.232778  3.232911  -0.901713  0.680607  8.833629  -0.901713  0.680607  8.833629  -7.251196  29.889066  12.443089  175.327158  24.863064  -156.903257  -16.066453  -17.620176  61.213567  34.168816  -26.794692  124.819338  -1.082744  0.565082  24.805224  107.078793  35.040917  41.669449  -26.79995  17.369153  -41.823068  -2.944106  -9.256597  73.372971  3.580153  6.096772  5.22467  2.630507  4.603729  3.879121  
0.0  93.25843  0.0  8.804878  3.198165  -114.030447  36.103922  -10.518583  -91.238495  13.589537  34.371769  107.517261  -0.117962  -2.040377  0.39985  -5.549359  3.042634  14.061713  -0.397871  8.117537  10.82842  7.291868  2.796237  3.977562  -0.272505  0.146178  3.337472  -0.723101  0.436237  9.120986  -0.723101  0.436237  9.120986  -7.708571  29.423576  11.745439  171.797686  23.158632  -159.745662  -18.139399  -19.052551  61.182165  36.872798  -29.600374  124.384894  -1.404783  0.429169  24.261588  106.953437  33.583132  41.855211  -29.221361  15.549553  -41.392559  -2.614691  -6.669885  69.748889  2.628915  5.584667  4.041981  1.933183  4.206177  3.005057  
0.0  93.25843  0.0  7.667109  3.880761  -112.811257  34.351084  -11.252825  -87.381284  13.016772  33.428041  106.913687  -0.131597  -1.658801  0.206381  -5.960788  1.906095  12.820911  -0.528565  7.820883  10.691374  6.818739  2.709667  3.838616  -0.248221  0.032987  3.352196  -0.672426  0.124325  9.162452  -0.672426  0.124325  9.162452  -8.090936  28.976893  11.096796  170.26525  21.472915  -161.856317  -18.870554  -20.097625  61.520856  38.283182  -32.119662  124.260344  -1.257973  0.400164  23.869827  106.1683  32.549466  41.671621  -31.358576  14.297318  -41.262174  -2.148977  -5.055014  66.801799  2.12197  5.139378  3.146895  1.563931  3.865626  2.340733  
0.0  93.25843  0.0  6.563225  4.548359  -111.465243  32.731181  -12.002345  -83.514756  12.447602  32.560058  106.128972  -0.166825  -1.295455  -0.012035  -6.363691  0.708264  11.406977  -0.943527  7.643641  10.348091  6.68803  2.668128  3.879292  -0.223226  -0.051999  3.32674  -0.615982  -0.111158  9.093711  -0.615982  -0.111158  9.09371  -8.148588  28.550627  11.10787  170.283444  20.552234  -162.907177  -18.455115  -20.655679  62.028336  38.824547  -34.131722  124.403058  -1.193331  0.169274  23.425288  105.043058  31.858648  41.51251  -32.37738  13.785998  -41.169826  -2.496159  -3.997133  64.705694  1.535474  4.776414  2.293665  1.132993  3.588155  1.707239  
0.0  93.25843  0.0  5.466605  5.122587  -109.943226  31.302172  -12.872268  -79.832552  12.008597  31.77075  105.241533  -0.172263  -0.957976  -0.262039  -6.569382  -0.574172  9.823104  -0.941759  7.293842  10.185826  6.316999  2.679209  3.807305  -0.19327  -0.125767  3.256105  -0.544098  -0.317067  8.90124  -0.544098  -0.317067  8.901239  -7.658453  28.072679  11.761331  171.259541  20.135455  -163.084161  -17.051515  -21.177213  62.714464  38.372837  -35.821653  124.86767  -1.022223  -0.11791  23.113116  103.609492  31.608973  41.392248  -32.891181  13.653782  -41.611784  -3.239705  -3.177791  63.43755  1.094763  4.397733  1.576443  0.809311  3.30116  1.173864  
0.0  93.25843  0.0  4.49002  5.644831  -108.528326  29.947281  -13.949732  -76.085386  11.701974  30.935727  104.238694  -0.193242  -0.611003  -0.493784  -6.781336  -1.694652  8.181058  -0.995517  7.004926  9.964257  6.058819  2.685068  3.81869  -0.156988  -0.245199  3.159214  -0.460276  -0.648426  8.637201  -0.460276  -0.648426  8.637201  -7.220778  27.353054  11.868672  172.542982  19.229482  -163.555744  -15.204253  -21.826653  63.607172  37.073452  -37.512443  125.477254  -1.120119  0.112887  22.954482  102.489052  31.519072  41.235262  -33.345471  13.798278  -42.3045  -4.009489  -2.528992  62.809464  0.608173  4.300177  1.046707  0.44854  3.226188  0.780376  
0.0  93.25843  0.0  3.712737  5.965931  -107.260932  28.741921  -15.149281  -72.163971  11.502931  30.039473  103.07761  -0.178495  -0.28402  -0.689897  -6.73058  -2.719176  6.732508  -0.816245  6.825794  9.747449  5.479725  2.666924  3.696802  -0.067815  -0.337182  3.03186  -0.227268  -0.911495  8.28871  -0.227268  -0.911495  8.28871  -7.002936  26.892231  12.081947  174.1263  18.851186  -164.030684  -13.470234  -22.498336  64.744163  35.195107  -39.426758  125.991242  -1.34844  0.221951  22.979903  100.840141  32.043537  40.847927  -32.765336  14.299895  -43.138325  -5.10207  -1.923238  62.882453  0.154763  4.222872  0.80329  0.11046  3.167364  0.601124  
0.0  93.25843  0.0  2.975325  6.26251  -105.941176  27.516856  -16.348779  -68.295925  11.374791  29.080192  101.79945  -0.071113  -0.013189  -0.869741  -6.459573  -3.734727  5.334636  -0.975977  6.587897  9.315161  5.185059  2.659531  3.735076  0.044827  -0.43518  2.879233  0.070578  -1.192915  7.870075  0.070578  -1.192915  7.870074  -6.760289  26.579299  12.615566  175.34115  18.862262  -164.266595  -12.19388  -23.268848  66.070686  32.944003  -41.334394  126.198782  -1.729024  0.288916  22.954041  100.106712  32.11535  40.911794  -32.863916  15.152693  -43.934339  -6.404481  -1.544262  63.499599  -0.430338  4.202964  0.633753  -0.326975  3.151783  0.478065  
